<svg width="614" height="501" viewBox="0 0 614 501" fill="none" xmlns="http://www.w3.org/2000/svg">
<path opacity="0.95" d="M345.188 73.0645H218.081C208.039 73.0645 199.898 81.2031 199.898 91.2425V218.312C199.898 228.351 208.039 236.49 218.081 236.49H345.188C355.23 236.49 363.371 228.351 363.371 218.312V91.2425C363.371 81.2031 355.23 73.0645 345.188 73.0645Z" fill="rgba(187, 190, 196,0.4)"/>
<path d="M319.48 199.285H243.793V203.022H319.48V199.285Z" fill="#3E4F5C"/>
<path d="M308.759 211.062H254.513V214.799H308.759V211.062Z" fill="#3E4F5C"/>
<path opacity="0.95" d="M592.578 129.746H411.689C399.858 129.746 390.267 139.334 390.267 151.162V370.865C390.267 382.693 399.858 392.281 411.689 392.281H592.578C604.409 392.281 614 382.693 614 370.865V151.162C614 139.334 604.409 129.746 592.578 129.746Z" fill="rgba(187, 190, 196,0.4)"/>
<path d="M509.455 284.626H491.709V287.91H509.455V284.626Z" fill="#3E4F5C"/>
<path d="M527.596 314.73H424.34V321.091H527.596V314.73Z" fill="#3E4F5C"/>
<path d="M507.838 345.27H424.34V351.631H507.838V345.27Z" fill="#3E4F5C"/>
<path d="M473.29 330.001H424.34V336.362H473.29V330.001Z" fill="#3E4F5C"/>
<path d="M554.609 155.927V159.14H573.533V176.893H576.744V155.927H554.609ZM426.116 176.893H429.33V159.14H448.254V155.927H426.116V176.893ZM573.533 268.499V286.256H554.609V289.469H576.744V268.499H573.533ZM429.33 268.499H426.116V289.469H448.254V286.256H429.33V268.499Z" fill="#3E4F5C"/>
<path d="M566.727 352.099C562.983 352.099 559.324 350.989 556.211 348.909C553.099 346.83 550.673 343.874 549.241 340.416C547.81 336.958 547.436 333.153 548.168 329.483C548.899 325.812 550.704 322.441 553.352 319.796C556 317.151 559.374 315.351 563.046 314.623C566.718 313.895 570.524 314.272 573.982 315.707C577.439 317.142 580.393 319.57 582.471 322.683C584.548 325.797 585.655 329.456 585.651 333.199C585.64 338.211 583.642 343.015 580.095 346.558C576.548 350.101 571.741 352.093 566.727 352.099ZM566.727 317.927C563.709 317.927 560.758 318.822 558.248 320.498C555.739 322.175 553.783 324.557 552.628 327.345C551.473 330.133 551.17 333.2 551.759 336.16C552.348 339.119 553.802 341.838 555.936 343.971C558.07 346.105 560.789 347.558 563.75 348.146C566.71 348.735 569.778 348.433 572.567 347.278C575.355 346.124 577.739 344.168 579.416 341.659C581.093 339.15 581.988 336.201 581.988 333.183C581.983 329.138 580.374 325.26 577.513 322.4C574.652 319.54 570.773 317.931 566.727 317.927Z" fill="#3E4F5C"/>
<path d="M565.521 340.626L556.924 332.031L559.512 329.444L565.521 335.448L573.942 327.03L576.53 329.62L565.521 340.626Z" fill="#3E4F5C"/>
<path d="M323.723 136.714C320.093 127.109 311.375 122.709 307.259 121.337C305.796 120.85 303.178 119.995 300.419 119.103L290.018 115.75H272.87C272.87 115.75 266.932 117.74 260.618 119.952C254.804 121.991 248.68 124.212 246.616 125.25C242.305 127.4 235.053 142.784 233.599 144.547C232.843 145.454 229.477 151.447 226.161 158.139H244.636C246.588 154.787 248.091 152.187 248.091 152.187C248.091 152.187 249.26 154.749 250.676 158.139H309.872C310.802 154.204 311.391 149.244 311.391 149.244C311.391 149.244 314.561 153.553 318.023 158.139H335.069C330.916 151.186 325.768 142.13 323.723 136.714Z" fill="#1c3657"/>
<path d="M283.488 68.6401C283.488 68.6401 296.898 70.75 294.856 91.7259C292.814 112.702 280.978 110.979 280.187 110.957C279.397 110.936 268.308 111.342 267.443 85.7337C267.443 85.7337 267.065 66.7966 283.488 68.6401Z" fill="#CF9E86"/>
<path d="M295.051 85.8018C295.051 85.8018 296.517 84.2341 297.057 85.8204C297.596 87.4068 295.054 94.4958 294.961 94.8057C294.961 94.8057 294.695 95.4253 294.342 95.0814C293.988 94.7375 295.051 85.8018 295.051 85.8018Z" fill="#EEA886"/>
<path d="M267.802 85.5354C267.802 85.5354 266.364 83.9397 265.797 85.5168C265.23 87.0938 267.61 94.22 267.716 94.5516C267.716 94.5516 267.973 95.1712 268.336 94.8428C268.698 94.5144 267.802 85.5354 267.802 85.5354Z" fill="#EEA886"/>
<path d="M295.051 89.0334L293.13 91.5989C293.13 91.5989 293.185 85.9754 292.876 85.0923C292.566 84.2093 292.098 81.5168 291.84 80.8786C291.583 80.2403 280.324 77.0924 270.381 81.8081C270.381 81.8081 270.818 85.8359 269.864 86.2108C268.909 86.5857 269.38 92.801 269.38 92.801L267.799 91.0195C267.799 91.0195 265.385 74.8833 265.98 73.2009C266.575 71.5184 268.478 61.4085 288.881 67.41C288.881 67.41 295.24 66.0623 296.517 70.4526C297.794 74.843 295.051 89.0334 295.051 89.0334Z" fill="#434343"/>
<path d="M291.682 115.369C291.682 115.351 289.962 114.524 289.962 114.524C289.125 112.665 289.745 104.779 289.745 104.779C289.745 104.779 272.668 100.442 273.155 103.757C273.642 107.072 271.686 114.799 271.686 114.799L262.924 119.137C262.924 119.137 272.259 144.196 282.986 140.962C293.712 137.727 297.766 118.235 297.766 118.235L291.682 115.369Z" fill="#CF9E86"/>
<path d="M273.403 107.45C273.403 107.45 276.152 111.001 280.928 111.001C284.071 111.001 286.327 110.121 289.457 107.069C289.457 107.069 288.1 112.863 280.95 113.402C280.95 113.402 275.768 114.062 273.403 107.45Z" fill="#A77860"/>
<path d="M224.097 191.589C224.097 191.589 233.952 196.407 231.513 209.516C229.074 222.625 227.999 224.388 230.726 229.513C233.453 234.637 236.667 256.484 234.213 260.623C231.758 264.763 203.84 242.427 199.984 223.682C196.129 204.936 202.439 196.602 204.674 193.494C206.908 190.387 215.4 187.174 224.097 191.589Z" fill="#0E2D3D"/>
<path d="M220.381 495.806H222.612V485.272C222.612 485.272 226.995 488.191 229.74 492.228C232.486 496.265 236.271 495.921 242.023 495.661C247.775 495.401 247.521 493.086 247.006 489.824C246.492 486.561 240.65 485.529 238.759 485.015C236.869 484.501 232.579 477.111 231.2 475.311C230.061 473.823 229.096 472.209 228.324 470.502C228.324 470.502 227.252 466.124 221.924 470.502C216.597 474.88 218.146 483.298 218.747 484.07C219.349 484.841 220.381 495.806 220.381 495.806Z" fill="#131d33"/>
<path d="M231.631 485.018C233.605 486.307 238.759 485.018 238.759 485.018C237.3 483.128 228.324 470.505 228.324 470.505C222.869 467.33 220.715 471.701 220.715 471.701C222.941 472.383 229.657 483.729 231.631 485.018Z" fill="#C78A6C"/>
<path d="M289.06 290.776C289.06 290.776 292.637 291.461 293.858 289.782C294.896 288.353 297.267 287.257 298.002 286.919C298.978 286.463 301.457 283.957 302.031 285.184C302.604 286.411 298.141 289.521 297.332 290.352C296.523 291.182 301.718 291.563 302.601 292.378C303.484 293.193 302.393 301.76 298.857 301.094C295.321 300.428 291.986 297.376 291.341 297.376C290.47 297.3 289.604 297.171 288.747 296.992L289.06 290.776Z" fill="#C78A6C"/>
<path d="M301.839 292.028C301.839 292.028 312.528 294.789 313.086 295.566C313.644 296.344 313.461 296.917 312.466 296.7C311.471 296.483 302.062 294.333 302.062 294.333C302.062 294.333 314.149 299.724 314.769 300.263C315.116 300.573 314.828 301.704 314.276 301.639C313.724 301.574 301.423 296.914 301.423 296.914C301.423 296.914 312.714 301.971 313.08 302.569C313.156 302.722 313.184 302.895 313.161 303.065C313.137 303.235 313.062 303.394 312.947 303.521C312.831 303.648 312.68 303.737 312.513 303.777C312.346 303.816 312.171 303.804 312.011 303.743C311.146 303.433 300.401 299.325 300.401 299.325C300.401 299.325 308.387 303.523 308.397 304.211C308.397 304.632 308.198 305.617 306.171 304.471C304.145 303.325 299.077 301.119 299.077 301.119L301.839 292.028Z" fill="#C78A6C"/>
<path d="M191.443 496.525H192.816V488.779C194.433 490.566 195.647 492.679 196.377 494.976C197.493 498.669 201.491 499.763 207.59 499.593C213.689 499.422 213.788 497.015 213.259 493.396C212.729 489.777 207.59 487.899 207.59 487.899C205.272 485.839 199.532 477.297 199.532 477.297C199.532 477.297 195.838 476.309 192.94 478.648C190.042 480.987 190.944 486.27 191.027 487.633C191.111 488.996 191.443 496.525 191.443 496.525Z" fill="#131d33"/>
<path d="M195.652 312.425C195.652 312.425 188.384 321.868 186.413 333.075C184.442 344.282 187.578 381.889 187.491 387.429C187.404 392.969 182.253 406.748 183.282 417.173C184.311 427.599 188.381 479.534 188.381 479.534L199.516 477.325C199.516 477.325 198.872 424.386 199.516 420.005C200.161 415.624 201.453 399.665 201.711 397.861C201.968 396.058 218.069 348.709 218.069 340.629C218.069 332.548 213.172 299.247 195.652 312.425Z" fill="#131d33"/>
<path d="M232.155 316.121C232.155 316.121 244.093 361.666 245.513 367.984C246.932 374.302 248.981 379.498 248.981 382.178C248.981 388.396 246.672 398.379 246.672 398.379L231.516 470.865H217.077C217.077 470.865 225.135 427.379 225.339 418.874C225.544 410.369 232.118 398.252 230.831 394.645C229.545 391.039 210.088 349.434 210.088 349.434C210.088 349.434 195.351 302.897 232.155 316.121Z" fill="#131d33"/>
<path d="M207.59 487.937L199.532 477.334L192.94 478.685C192.94 478.685 194.713 483.432 197.917 487.001C201.698 491.23 207.59 487.937 207.59 487.937Z" fill="#C78A6C"/>
<path d="M227.224 238.708C230.521 239.184 233.563 240.751 235.865 243.158C239.584 247.142 243.077 253.494 244.05 255.619C245.023 257.745 258.678 277.435 259.388 277.878C260.098 278.321 266.959 280.611 271.506 282.141C278.526 284.502 292.581 289.614 292.581 289.614L289.792 298.457C289.792 298.457 263.34 289.803 256.713 288.174C248.612 286.178 229.964 262.259 229.964 262.259C229.964 262.259 216.066 245.968 227.224 238.708Z" fill="#fa9928"/>
<path d="M218.636 235.257C218.636 235.257 225.011 238.269 227.224 238.708C229.437 239.148 238.028 250.306 239.534 254.38C241.04 258.454 239.534 264.561 236.435 271.731C233.336 278.9 236.255 281.292 234.839 288.462C233.422 295.631 233.878 322.46 234.144 326.444C234.411 330.429 192.695 336.465 184.46 329.205C184.46 329.205 190.039 305.038 196.637 298.129C198.063 296.638 197.914 286.693 196.947 284.214C195.98 281.735 184.993 263.232 184.993 263.232C184.993 263.232 184.187 244.465 188.979 240.747C193.141 237.516 204.475 236.363 206.521 235.654C208.566 234.944 214.47 234.637 218.636 235.257Z" fill="white"/>
<path d="M221.679 227.901C221.679 227.901 221.487 229.658 221.267 232.028C221.183 232.958 221.09 234.002 221.007 235.065C220.753 238.244 220.548 241.655 220.672 243.402C220.672 243.402 214.046 250.042 206.511 235.657C206.511 235.657 209.679 229.723 207.296 221.649C204.912 213.575 221.679 227.901 221.679 227.901Z" fill="#C78A6C"/>
<path d="M240.222 274.377C240.222 274.377 241.818 263.771 240.123 257.336C240.123 257.336 240.123 262.882 237.079 270.758L240.222 274.377Z" fill="#9c5e17"/>
<path d="M201.419 236.676C201.419 236.676 205.978 250.132 218.49 249.144C231.002 248.155 224.422 237.779 224.422 237.779C224.422 237.779 221.304 235.991 220.427 235.824C219.55 235.657 206.592 235.492 206.592 235.492L201.419 236.676Z" fill="#C78A6C"/>
<path d="M224.422 237.779C224.422 237.779 230.977 255.904 230.977 274.377C230.977 292.849 231.504 322.937 233.791 332.437C236.078 341.936 242.593 371.324 242.593 371.324L247.698 368.684C247.698 368.684 235.424 321.788 234.498 318.404C233.571 315.021 235.201 279.297 236.081 276.307C236.962 273.317 240.702 260 240.111 256.304C239.376 251.657 235.018 244.756 227.977 238.832L224.422 237.779Z" fill="#fa9928"/>
<path d="M203.893 236.109C206.736 245.842 208.789 255.789 210.029 265.853C212.096 282.553 203.694 360.071 198.063 377.666L176.235 374.147C176.235 374.147 180.933 319.355 187.311 309.391C193.69 299.427 195.72 290.597 188.833 269.785C181.947 248.973 191.846 238.653 191.846 238.653C191.846 238.653 201.98 236.326 203.893 236.109Z" fill="#fa9928"/>
<path d="M227.441 291.402L200.976 337.227L171.558 320.248L196.873 273.76L227.441 291.402Z" fill="#999999"/>
<path d="M224.252 292.979L200.747 333.676L174.62 318.596L197.102 277.311L224.252 292.979Z" fill="#E0CEC7"/>
<path d="M215.58 289.323L217.229 286.466L206.666 280.372L204.602 282.99L215.58 289.323Z" fill="#616161"/>
<path d="M214.318 321.837C214.318 321.837 213.116 321.837 212.586 321.589C212.586 321.589 211.656 321.053 210.984 320.709C210.809 320.62 210.63 320.54 210.447 320.471C209.908 320.282 208.665 320.034 207.497 319.232C206.329 318.429 202.185 313.624 202.185 313.624L204.14 310.649L205.575 307.603C205.575 307.603 214.275 308.164 215.453 308.793C215.567 308.858 215.679 308.923 215.763 308.991C216.692 309.611 217.145 310.488 217.604 310.875C217.771 311.018 219.342 312.551 219.287 313.205C219.28 313.57 219.182 313.927 219 314.243C218.817 314.559 218.558 314.823 218.245 315.012C218.245 315.012 218.019 316.781 217.145 317.605C217.145 317.605 216.99 319.244 215.614 319.963C215.629 319.953 215.285 321.599 214.318 321.837Z" fill="#C78A6C"/>
<path d="M196.386 238.708C196.386 238.708 188.35 236.41 183.744 245.261C179.139 254.113 179.16 257.89 178.547 262.216C177.964 266.296 175.342 277.441 175.076 278.59C174.809 279.74 168.877 293.463 171.595 298.262C174.313 303.061 202.148 317.276 201.968 318.339C201.788 319.402 206.784 307.61 206.784 307.61C206.784 307.61 195.534 301.335 193.705 299.411C190.711 296.276 184.407 292.905 185.694 289.004C187.215 284.434 191.796 269.013 192.859 266.755C193.922 264.496 203.158 241.587 196.386 238.708Z" fill="#fa9928"/>
<path d="M222.668 193.042C222.668 193.042 236.974 197.538 229.207 222.219C221.441 246.901 201.903 219.359 203.945 204.32C205.988 189.281 222.668 193.042 222.668 193.042Z" fill="#C78A6C"/>
<path d="M230.67 207.443C230.67 207.443 223.56 214.417 211.665 215.291C211.665 215.291 207.091 220.651 206.741 222.755C206.741 222.755 196.126 204.667 209.174 193.823C222.222 182.978 235.468 202.975 230.67 207.443Z" fill="#0E2D3D"/>
<path d="M211.808 215.781C211.715 213.984 210.609 209.894 207.937 211.04C205.266 212.187 208.101 220.512 209.871 219.998C209.871 219.998 212.025 220.032 211.808 215.781Z" fill="#C78A6C"/>
<path d="M221.267 232.028C221.183 232.958 221.09 234.002 221.007 235.065C221.007 235.065 214.69 234.687 210.469 225.296C210.751 225.708 215.372 232.503 221.267 232.028Z" fill="#A77860"/>
<path d="M64.6021 457.753C73.776 451.302 84.5118 406.354 85.1534 379.584C85.4819 365.871 89.5358 360.158 93.1123 355.107C96.5215 350.289 99.4875 346.122 97.7612 336.573C94.476 318.311 103.12 310.429 103.207 310.352L102.206 309.211C101.821 309.549 92.8179 317.679 96.2705 336.843C97.8759 345.769 95.226 349.502 91.8726 354.231C88.3518 359.188 83.9726 365.36 83.6317 379.538C82.9436 408.269 71.9691 450.707 63.725 456.501L64.6021 457.753Z" fill="url(#paint0_linear)"/>
<path d="M45.3712 444.643C44.5065 442.679 43.6109 440.65 42.5974 438.509C37.3565 427.451 32.7138 425.629 25.0215 422.611C23.1433 421.874 21.011 421.037 18.6742 419.99C7.65627 415.033 9.78855 407.745 11.6729 401.31C11.9363 400.408 12.1967 399.51 12.426 398.624C13.393 394.837 11.5335 392.938 8.70693 390.063C6.61492 387.928 4.00843 385.27 1.99701 381.078C-0.200374 376.483 0.91846 374.02 2.24805 372.762C5.03739 370.113 11.487 370.593 17.5708 373.92C19.4614 374.952 21.0172 376.582 22.666 378.308C26.5432 382.367 31.3718 387.42 43.5799 387.479C50.5439 387.51 54.356 388.47 56.3302 390.689C58.571 393.208 58.1495 396.975 57.57 402.193C57.3685 403.996 57.1391 406.041 56.9997 408.253C56.1691 421.434 63.9544 430.946 64.0319 431.039C68.6808 436.572 74.4114 448.061 71.9381 455.128C70.903 458.093 68.5847 459.959 65.0485 460.674C63.7722 460.943 62.4723 461.083 61.1682 461.093C52.6297 461.083 49.5026 454.019 45.3712 444.643ZM16.858 375.24C11.4219 372.275 5.59525 371.677 3.30489 373.849C1.56 375.501 2.37512 378.329 3.37929 380.412C5.27914 384.384 7.68416 386.834 9.80406 389C12.7546 392.006 15.0728 394.382 13.9013 398.995C13.6688 399.9 13.4023 400.814 13.1327 401.731C11.2731 408.139 9.49104 414.193 19.3033 418.602C21.6061 419.637 23.7198 420.461 25.5824 421.198C33.3461 424.244 38.4754 426.255 43.9735 437.858C44.9962 440.027 45.895 442.056 46.7628 444.027C51.5109 454.781 54.3746 461.272 64.7386 459.175C67.7108 458.574 69.6509 457.04 70.497 454.617C72.6665 448.386 67.4628 437.477 62.8573 431.999C62.5226 431.593 54.6071 421.948 55.4779 408.142C55.6174 405.895 55.8499 403.829 56.0544 402.01C56.5937 397.183 56.9842 393.694 55.1959 391.683C53.5564 389.843 49.9706 389.009 43.5706 388.978C30.7179 388.92 25.6413 383.606 21.5658 379.339C19.9325 377.629 18.5254 376.154 16.8425 375.237L16.858 375.24Z" fill="#22838C"/>
<path d="M64.8842 469.839L66.3997 469.762C66.3253 468.337 64.4131 434.794 50.9406 424.978C36.1602 414.208 31.502 402.633 29.2829 394.862C26.6671 385.71 13.3558 383.262 12.7917 383.163L12.5252 384.656C12.6553 384.681 25.4677 387.039 27.8231 395.281C30.1042 403.265 34.8895 415.156 50.048 426.202C62.9409 435.599 64.8656 469.511 64.8842 469.839Z" fill="#22838C"/>
<path d="M62.3181 477.384C59.1506 475.807 59.2653 469.461 59.4388 459.856C59.6589 447.72 59.9595 431.097 53.6029 415.807C46.8527 399.566 52.8746 394.819 58.6981 390.23C65.2066 385.087 71.3803 380.232 59.5566 358.317C54.1267 348.251 52.4035 341.441 54.1298 336.886C55.8375 332.387 60.6383 330.634 65.7087 328.778C74.4672 325.571 84.3941 321.94 83.1141 303.405C82.7205 297.723 83.3869 294.228 85.2154 292.409C87.2021 290.432 90.1278 290.646 93.5153 290.894C98.6353 291.269 104.434 291.693 109.486 285.103C110.01 283.458 114.838 268.763 120.615 266.247C121.168 265.985 121.773 265.85 122.386 265.854C122.998 265.857 123.601 265.998 124.152 266.265V266.265C128.14 268.171 130.452 270.433 131.227 273.181C132.572 277.955 129.058 283.34 125.029 289.577C118.663 299.38 111.445 310.488 118.929 323.709C128.825 341.186 123.6 347.306 116.366 355.77C112.219 360.622 107.521 366.119 104.381 375.086C101.855 382.298 106.163 389.174 110.332 395.823C115.557 404.164 120.962 412.789 109.582 420.275C90.7693 432.65 72.1892 473.043 72.0033 473.449L71.9258 473.616L71.7801 473.731C68.3151 476.448 65.7923 477.759 63.8894 477.759C63.3432 477.76 62.8046 477.632 62.3181 477.384ZM108.739 419.008C118.88 412.337 114.318 405.065 109.049 396.628C104.893 389.998 100.185 382.484 102.953 374.584C106.188 365.351 110.983 359.736 115.213 354.785C122.304 346.491 126.99 341.01 117.612 324.455C109.675 310.435 117.485 298.429 123.761 288.753C127.61 282.826 130.936 277.704 129.78 273.59C129.129 271.291 127.08 269.342 123.51 267.635C123.156 267.462 122.767 267.372 122.373 267.372C121.978 267.372 121.589 267.462 121.235 267.635C115.876 269.968 110.955 285.525 110.905 285.683L110.865 285.807L110.784 285.912C105.206 293.267 98.6756 292.79 93.4285 292.403C90.2889 292.174 87.8064 291.991 86.3002 293.481C84.7939 294.971 84.2826 298.157 84.639 303.297C85.9996 322.968 75.0312 326.977 66.2417 330.197C61.2829 332.006 57.0245 333.571 55.5617 337.422C54.012 341.534 55.698 347.956 60.9048 357.595C73.3328 380.635 66.375 386.119 59.6496 391.423C54.0213 395.86 48.7061 400.049 55.0162 415.228C61.4937 430.809 61.1899 447.615 60.9668 459.887C60.8149 468.253 60.6971 474.877 63.0092 476.03C64.3605 476.702 66.9484 475.565 70.7016 472.646C72.1954 469.374 89.9914 431.333 108.739 419.008Z" fill="#22838C"/>
<path d="M32.6209 301.323C42.1976 298.042 40.2079 316.505 44.2555 330.138C48.3032 343.77 89.2662 336.093 72.0714 370.277C54.8767 404.461 93.819 381.707 82.1844 411.538C70.5497 441.369 81.174 473.272 68.529 465.158C55.884 457.043 61.4255 419.479 48.2784 415.014C35.1313 410.549 32.9835 405.344 46.0004 393.211C59.0173 381.078 11.8868 369.044 23.5183 344.526C35.1499 320.009 21.5596 305.115 32.6209 301.323Z" fill="#83c773"/>
<path d="M64.1218 463.203C65.3275 458.096 75.6108 413.158 66.0155 407.723C57.5576 402.937 57.7653 384.315 59.0855 366.729C60.254 351.163 40.2544 343.888 39.4052 343.585L38.8969 345.016C39.0953 345.084 58.6547 352.207 57.5731 366.615C56.2187 384.675 56.0731 403.838 65.2686 409.043C72.5519 413.17 65.845 449.288 62.6466 462.856L64.1218 463.203Z" fill="white"/>
<path d="M100.25 447.2L86.579 499.054H56.0265L42.3556 447.2H100.25Z" fill="url(#paint1_linear)"/>
<path d="M100.25 447.203C100.25 447.203 70.1529 452.851 70.1529 499.054H56.0265L42.3556 447.203H100.25Z" fill="url(#paint2_linear)"/>
<path opacity="0.95" d="M484.59 12.5444H394.38C386.124 12.5444 379.432 19.2348 379.432 27.4878V105.74C379.432 113.993 386.124 120.683 394.38 120.683H484.59C492.845 120.683 499.538 113.993 499.538 105.74V27.4878C499.538 19.2348 492.845 12.5444 484.59 12.5444Z" fill="rgba(187, 190, 196,0.4)"/>
<path d="M443.791 100.231H434.264V101.994H443.791V100.231Z" fill="#3E4F5C"/>
<path d="M447.641 3.07588C447.641 3.07588 455.317 7.28964 452.881 17.6381C450.445 27.9866 449.516 29.3685 451.496 33.5544C453.476 37.7402 455.215 55.2831 453.105 58.493C450.994 61.7029 429.584 42.837 427.207 27.748C424.83 12.6591 430.182 6.24549 432.082 3.85356C433.982 1.46164 440.872 -0.772268 447.641 3.07588Z" fill="#344052"/>
<path d="M462.052 88.7019H453.836C453.439 84.6492 453.071 81.8298 453.145 81.4115C453.266 80.7236 444.969 58.9639 444.194 57.1638C443.419 55.3636 440.373 50.5426 439.976 46.0097C439.579 41.4768 445.502 39.6302 445.502 39.6302C453.504 41.0648 456.213 52.129 456.213 52.129C456.213 52.129 459.573 74.5672 461.274 80.8817C461.711 82.4866 461.947 85.3464 462.052 88.7019Z" fill="#CF9E86"/>
<path d="M457.918 57.5201L445.676 62.6788C445.676 62.6788 434.428 34.7751 443.856 37.892C453.284 41.009 457.487 46.8339 457.918 57.5201Z" fill="#e8ee70"/>
<path d="M455.194 70.6571C454.837 73.427 453.371 83.2395 453.7 85.8917C453.755 86.3285 453.935 87.3324 454.208 88.7019H424.703C425.487 85.9134 426.203 83.4347 426.634 81.9784C428.069 77.2287 426.696 75.9553 425.971 72.1567C425.689 70.6664 424.697 67.8407 423.618 64.6494C423.256 63.5835 422.884 62.4805 422.524 61.3558C421.229 57.328 420.624 53.2227 420.252 50.8214C418.473 39.4722 427.201 38.3816 427.201 38.3816C430.446 37.7836 436.114 36.033 436.114 36.033L444.991 37.892C445.732 38.2163 446.43 38.6327 447.067 39.1314C447.78 39.6588 448.448 40.2432 449.066 40.8788C450.036 41.8765 451.967 44.7239 453.892 47.8563C454.481 48.8168 455.076 49.8021 455.634 50.775C457.437 53.895 458.733 56.414 458.68 59.2552C458.649 62.0406 455.55 67.8872 455.194 70.6571Z" fill="#e8ee70"/>
<path d="M444.991 37.892C444.991 37.892 450.551 47.3916 448.484 48.1011C446.416 48.8106 435.516 46.4125 431.258 37.4366C431.258 37.4366 438.411 34.1926 444.991 37.892Z" fill="#CF9E86"/>
<path d="M444.194 42.2297C444.194 42.2297 439.254 44.3211 434.782 37.4428C434.782 37.4428 435.984 29.6318 433.443 25.1113C430.902 20.5908 444.548 30.5273 444.548 30.5273C444.548 30.5273 444.328 31.4568 444.098 32.8355C443.983 33.5388 443.863 34.3568 443.77 35.2274C443.692 35.9494 443.633 36.7085 443.608 37.4676C443.55 39.2243 443.677 40.9687 444.194 42.2297Z" fill="#CF9E86"/>
<path d="M431.927 52.8726C430.911 58.0995 423.615 64.6463 423.615 64.6463C423.255 63.5805 422.884 62.4774 422.527 61.3558C427.56 58.1491 431.927 52.8726 431.927 52.8726Z" fill="#393D63"/>
<path d="M430.099 57.0336C429.637 58.9391 427.508 78.2387 427.74 78.8987C427.877 79.2736 428.906 83.7383 429.938 88.7019H420.414C419.437 85.5044 418.864 82.8491 419 81.3464C419.62 74.8399 417.401 54.0809 417.401 54.0809C417.401 54.0809 415.424 41.5295 425.844 39.9617C425.844 39.9617 432.002 40.7704 432.374 45.3157C432.746 49.861 430.561 55.1344 430.099 57.0336Z" fill="#CF9E86"/>
<path d="M416.632 59.6982L429.563 62.7191C429.563 62.7191 439.821 42.8091 430.582 39.1716C420.844 35.3421 414.299 48.8385 416.632 59.6982Z" fill="#e8ee70"/>
<path d="M446.447 4.17889C446.447 4.17889 457.685 8.30279 450.563 27.6923C443.441 47.0817 428.899 24.3832 431.094 12.467C433.288 0.550721 446.447 4.17889 446.447 4.17889Z" fill="#CF9E86"/>
<path d="M452.286 15.965C452.286 15.965 446.354 21.257 436.837 21.5049C436.837 21.5049 434.611 26.927 434.252 28.5908C434.252 28.5908 424.846 12.4484 435.659 4.29353C446.472 -3.86133 456.278 12.5847 452.286 15.965Z" fill="#344052"/>
<path d="M438.12 22.6667C438.12 21.2322 437.385 17.9325 435.213 18.7442C433.04 19.556 434.986 26.298 436.418 25.9572C436.418 25.9572 438.135 26.0656 438.12 22.6667Z" fill="#CF9E86"/>
<path d="M443.621 37.136C438.352 35.6767 436.297 30.6295 436.235 30.4746C440.531 36.0237 443.77 35.2274 443.77 35.2274C443.692 35.9494 443.686 36.4017 443.621 37.136Z" fill="#A77860"/>
<path d="M468.031 32.1167V33.8394H478.187V43.3699H479.913V32.1167H468.031ZM399.053 43.3699H400.78V33.8394H410.936V32.1167H399.053V43.3699ZM478.187 92.5469V102.081H468.031V103.803H479.913V92.5469H478.187ZM400.78 92.5469H399.053V103.803H410.936V102.081H400.78V92.5469Z" fill="#3E4F5C"/>
<path d="M287.997 181.023H275.275V183.378H287.997V181.023Z" fill="#3E4F5C"/>
<path d="M319.765 90.0435V92.3456H333.333V105.077H335.652V90.0435H319.765ZM227.633 105.077H229.939V92.3456H243.504V90.0435H227.633V105.077ZM333.318 170.762V183.496H319.749V185.801H335.652V170.759L333.318 170.762ZM229.923 170.762H227.617V185.801H243.489V183.496H229.923V170.762Z" fill="#3E4F5C"/>
<path d="M565.853 267.027H555.08C554.882 266.597 554.723 266.222 554.59 265.921C551.398 258.383 534.941 241.097 534.941 241.097V241.135C534.939 241.141 534.939 241.147 534.941 241.153V241.175C534.941 241.2 534.922 241.221 534.913 241.249C534.904 241.277 534.894 241.333 534.876 241.389C534.865 241.419 534.859 241.45 534.857 241.482C534.857 241.509 534.839 241.528 534.829 241.556C534.154 244.075 530.837 256.623 529.179 267.027H456.346C456.179 266.064 455.984 265.144 455.758 264.292C455.126 261.815 454.657 259.3 454.354 256.763C454.354 256.642 454.326 256.53 454.316 256.409C454.261 255.969 454.211 255.529 454.174 255.096C453.783 251.09 453.742 247.059 454.053 243.046C453.848 243.486 452.376 248.88 450.448 255.536C449.389 259.189 448.189 263.226 446.999 267.027H429.804L451.384 204.785C451.862 204.41 457.462 201.705 461.547 199.756C465.716 197.773 470.746 194.858 475.286 192.37C477.611 191.096 479.802 189.944 481.705 189.073L481.993 188.943C485.132 187.508 487.221 186.563 487.221 186.563L488.579 186.433C492.961 186.009 506.555 184.738 511.117 184.475C511.489 184.447 511.808 184.438 512.046 184.429C512.199 184.419 512.352 184.419 512.505 184.429C513.075 184.466 515.886 185.439 519.568 186.845C519.708 186.892 519.847 186.947 519.987 187.003L520.514 187.198C520.824 187.322 521.158 187.443 521.487 187.573C522.144 187.837 522.826 188.1 523.511 188.37L524.233 188.652C531.603 191.573 540.039 195.195 542.057 196.639C543.386 197.584 547.518 205.367 552.303 214.991C557.479 231.48 563.783 255.285 565.853 267.027Z" fill="white"/>
<path d="M512.412 182.294C512.217 192.081 493.262 197.432 493.262 197.432C493.262 197.432 485.334 187.496 487.227 186.545C487.971 186.17 488.275 184.686 488.368 183.025C488.427 181.544 488.39 180.061 488.259 178.585C488.204 177.894 488.148 177.448 488.148 177.448C488.148 177.448 490.857 174.591 494.303 171.189C500.322 165.237 508.6 157.615 508.612 160.655C508.609 160.848 508.586 161.04 508.544 161.228C507.088 168.057 512.412 182.294 512.412 182.294Z" fill="#CF9E86"/>
<path d="M505.11 167.964C505.073 168.023 504.267 169.225 502.897 170.951C499.987 174.61 494.529 180.621 488.368 183.034C488.427 181.553 488.39 180.07 488.26 178.594C487.626 178.58 486.995 178.505 486.375 178.368C487.623 176.274 489 174.259 490.497 172.336L494.303 171.199L505.11 167.964Z" fill="#A77860"/>
<path d="M508.749 160.788C507.109 164.354 505.554 166.938 505.11 167.964C504.822 168.633 504.041 169.718 502.897 170.951C499.773 174.315 493.965 178.752 488.26 178.594C487.626 178.58 486.995 178.505 486.375 178.368C484.073 177.866 481.351 176.794 479.867 173.863C468.04 150.718 476.603 131.794 476.603 131.794C476.603 131.794 508.935 122.654 513.993 132.382C517.532 139.208 512.601 152.41 508.749 160.788Z" fill="#CF9E86"/>
<path d="M476.591 131.791C476.591 131.791 473.588 131.623 472.844 125.932C472.109 120.308 473.594 118.75 473.594 118.75C473.594 118.75 486.942 113.173 491.737 112.438C496.532 111.704 508.315 111.013 511.08 114.173C511.08 114.173 517.793 112.624 519.621 123.754C522.522 141.414 509.734 158.588 509.734 158.588C509.734 158.588 509.843 147.044 507.295 145.513C504.748 143.983 502.55 147.62 502.55 147.62L497.34 148.55C497.34 148.55 505.253 131.468 495.76 130.836C486.267 130.204 482.024 132.785 476.591 131.791Z" fill="#604840"/>
<path d="M502.702 143.022C503.198 137.935 512.4 135.992 511.783 141.324C511.166 146.657 506.635 151.778 504.543 151.598C502.451 151.419 502.315 146.898 502.702 143.022Z" fill="#CF9E86"/>
<path d="M556.552 215.446C553.555 205.841 550.973 198.256 549.808 197.432C547.794 195.988 531.832 191.598 524.258 188.63L523.536 188.348C522.851 188.078 522.169 187.815 521.512 187.552C521.183 187.421 520.858 187.301 520.539 187.177L520.012 186.982C519.872 186.926 519.733 186.87 519.593 186.824C519.593 186.824 519.572 186.851 519.553 186.861C516.57 190.269 513.777 193.839 511.185 197.553C503.353 208.676 493.153 226.702 494.719 243.344C495.224 248.679 495.84 256.357 496.888 264.955C496.962 265.639 497.046 266.321 497.139 267.015H532.471C532.902 258.005 533.67 246.141 534.832 241.543C534.832 241.516 534.851 241.497 534.86 241.469C534.862 241.437 534.868 241.406 534.879 241.376C534.879 241.33 534.907 241.283 534.916 241.237C534.925 241.19 534.935 241.187 534.944 241.162C534.942 241.156 534.942 241.15 534.944 241.144C534.944 241.144 543.495 254.507 543.932 267.037H566.169C565.094 255.387 561.694 231.932 556.552 215.446Z" fill="#131d33"/>
<path d="M481.863 189.184C481.863 189.184 479.194 198.061 475.748 220.227C475.624 220.967 475.512 221.723 475.391 222.501C475.391 222.585 475.364 222.681 475.354 222.774C475.268 223.279 475.193 223.802 475.119 224.323L475.091 224.509C475.035 224.856 474.979 225.212 474.933 225.575C474.799 226.445 474.669 227.347 474.539 228.255C473.247 237.299 471.52 251.672 469.769 267.012H455.804C455.045 262.752 454.335 258.873 454.391 256.214C454.365 256.272 454.343 256.333 454.326 256.394C453.21 259.492 451.983 262.845 450.737 266.113C450.625 266.423 450.514 266.711 450.399 267.012H426.327L450.306 204.301C450.783 203.926 456.957 200.602 461.042 198.665C465.303 196.633 470.69 194.133 475.466 191.933C477.75 190.873 479.895 189.891 481.714 189.057L481.863 189.184Z" fill="#131d33"/>
<path d="M514.337 211.108L505.11 216.317L509.056 220.345L500.399 267.034H497.139C495.94 257.593 495.258 249.119 494.725 243.362C492.317 217.646 518 188.611 519.593 186.842C520.833 187.31 522.159 187.824 523.535 188.366L514.337 211.108Z" fill="#1a2847"/>
<path d="M482.002 188.943C482.002 188.943 478.556 200.187 474.548 228.27C473.256 237.305 471.521 251.687 469.769 267.027H468.412L466.624 222.913L471.015 218.157L467.11 213.277L475.478 191.948C477.762 190.889 479.907 189.906 481.726 189.073L482.002 188.943Z" fill="#1a2847"/>
<path d="M520.058 186.941L512.412 182.294C512.412 182.294 512.198 186.486 493.262 197.432L498.639 212.574L520.058 186.941Z" fill="#f5f1f0"/>
<path d="M488.226 184.413C488.226 184.413 488.536 188.94 493.262 197.426L482.768 211.108L482.005 188.927L488.226 184.413Z" fill="#f5f1f0"/>
<path d="M493.293 197.442C493.293 197.442 495.326 205.575 494.595 207.852C494.595 207.852 490.122 209.479 486.908 207.446C486.896 207.446 489.183 201.751 493.293 197.442Z" fill="#131d33"/>
<path d="M490.826 225.094C488.681 239.703 488.681 254.479 489.478 267.027H480.515C480.393 265.257 480.277 263.41 480.168 261.484C478.5 232.558 488.728 206.715 488.728 206.715L493.29 205.572C493.29 205.572 491.821 218.352 490.826 225.094Z" fill="#131d33"/>
<path d="M454.679 243.121C454.338 250.061 454.388 256.223 454.388 256.223C454.388 256.258 454.388 256.447 454.366 256.756C454.351 256.639 454.335 256.524 454.323 256.406C453.21 259.505 451.98 262.854 450.74 266.126C450.466 262.603 450.373 259.068 450.461 255.536C450.957 236.075 457.081 225.872 457.081 225.872C455.674 229.265 455.001 236.543 454.679 243.121Z" fill="#0e1626"/>
<path d="M370.897 267.108L342.256 282.848L313.492 237.599L348.281 225.519L370.897 267.108Z" fill="#DDDDDD"/>
<path d="M369.08 265.751L342.296 280.468L315.398 238.154L347.931 226.857L369.08 265.751Z" fill="white"/>
<path d="M378.887 257.838C378.887 257.838 373.903 255.455 371.715 254.21C369.527 252.964 363.898 251.251 363.443 250.845C362.987 250.439 346.76 249.438 345.777 248.589C344.795 247.74 343.837 250.578 348.043 251.502C352.248 252.425 358.103 254.674 358.422 256.316C358.741 257.959 354.102 258.352 353.634 259.706C353.166 261.06 353.764 260.753 354.43 261.045C355.097 261.336 359.95 258.646 362.085 259.412C364.221 260.177 367.481 259.102 369.118 259.678C370.754 260.254 378.725 262.913 378.725 262.913L378.887 257.838Z" fill="#CF9E86"/>
<path d="M340.858 277.171C340.858 277.171 336.671 273.404 334.66 271.827C332.649 270.25 328.83 265.63 328.269 265.342C327.708 265.054 320.447 250.16 319.263 249.578C318.079 248.995 320.385 246.972 322.889 250.575C325.393 254.179 329.797 258.82 331.471 258.479C333.144 258.138 331.706 253.618 332.8 252.648C333.894 251.678 333.842 252.363 334.372 252.877C334.902 253.392 334.263 259.012 335.813 260.725C337.362 262.439 337.638 265.924 338.804 267.232C339.969 268.539 345.588 275.009 345.588 275.009L340.858 277.171Z" fill="#CF9E86"/>
<path d="M431.047 478.57C431.047 478.57 431.955 484.857 432.067 485.802C432.178 486.747 442.146 485.244 442.146 485.244L442.951 477.762C442.951 477.762 432.293 477.684 431.047 478.57Z" fill="#424773"/>
<path d="M431.961 485.003C431.961 485.003 428.803 488.789 425.763 490.44C422.723 492.092 417.912 492.745 416.106 494.468C414.804 495.707 411.361 501.012 424.04 500.906C436.719 500.801 442.837 501.656 444.185 499.617C445.533 497.579 442.22 484.587 442.22 484.587C442.22 484.587 439.214 485.656 431.961 485.003Z" fill="#131d33"/>
<path d="M359.656 478.57C359.656 478.57 360.561 484.857 360.672 485.802C360.784 486.747 370.751 485.244 370.751 485.244L371.557 477.762C371.557 477.762 360.898 477.684 359.656 478.57Z" fill="#424773"/>
<path d="M360.567 485.003C360.567 485.003 357.412 488.789 354.368 490.44C351.325 492.092 340.081 493.449 338.274 495.156C336.969 496.395 334.802 501.353 352.645 500.894C365.324 500.563 371.442 501.644 372.79 499.605C374.138 497.566 370.825 484.575 370.825 484.575C370.825 484.575 367.993 485.731 360.567 485.003Z" fill="#131d33"/>
<path d="M422.797 317.05C422.797 317.05 432.16 331.922 431.475 345.363C430.79 358.804 434.869 373.481 436.276 387.522C437.844 403.178 444.259 440.238 444.492 448.612C444.724 456.987 443.497 483.723 443.497 483.723L430.65 484.033C430.65 484.033 419.865 419.243 417.069 412.631C414.274 406.019 400.42 358.89 399.955 353.602C399.49 348.313 422.797 317.05 422.797 317.05Z" fill="#131d33"/>
<path d="M373.512 319.064C373.512 319.064 366.455 355.907 365.526 364.133C364.596 372.359 363.976 403.95 363.508 409.09C363.04 414.23 360.409 476.38 357.929 484.017H374.355C374.355 484.017 386.945 438.837 386.945 417.459C386.945 396.08 396.682 370.983 402.971 356.886C409.259 342.788 423.646 342.447 427.508 316.297C427.508 316.288 378.732 310.764 373.512 319.064Z" fill="#131d33"/>
<path d="M407.173 192.026C407.173 192.026 394.606 187.332 388.813 196.893C383.021 206.455 383.576 225.602 389.911 227.957C396.245 230.312 405.76 229.082 409.005 223.096C412.25 217.11 415.176 208.462 415.033 202.681C414.891 196.899 410.474 193.693 407.173 192.026Z" fill="#CF9E86"/>
<path d="M391.274 228.394C391.274 228.394 391.798 231.802 390.933 233.46C390.069 235.118 407.214 235.173 407.214 235.173C407.214 235.173 408.605 226.086 411.243 218.405C413.88 210.724 391.274 228.394 391.274 228.394Z" fill="#CF9E86"/>
<path d="M411.246 218.405C411.246 218.405 410.062 220.357 405.233 219.601C400.405 218.845 394.51 212.419 392.492 211.713C390.475 211.006 390.456 209.823 390.456 209.823L389.195 211.666L387.05 211.802C387.05 211.802 389.006 206.055 386.058 203.713C383.111 201.37 389.117 185.123 404.607 190.523C404.607 190.523 416.505 193.801 416.075 200.565C415.644 207.328 413.908 215.037 411.246 218.405Z" fill="#3A3F47"/>
<path d="M389.917 233.259C389.917 233.259 389.969 230.064 391.417 229.757C392.864 229.451 407.397 228.056 409.172 228.754V232.472C409.172 232.472 405.748 234.578 389.917 233.259Z" fill="#E2D2CA"/>
<path d="M390.775 207.363C391.048 206.229 393.933 202.985 395.037 206.458C396.14 209.931 393.369 214.6 391.82 214.204C390.27 213.807 390.09 210.241 390.775 207.363Z" fill="#CF9E86"/>
<path d="M332.243 270.978H332.265C332.174 271.018 332.159 271.024 332.243 270.978Z" fill="#323657"/>
<path d="M433.359 352.477C433.359 352.477 425.654 354.745 412.51 356.195C399.366 357.645 366.533 355.671 366.331 354.119C366.13 352.567 373.395 296.322 372.982 293.425C372.57 290.528 372.362 280.208 372.362 280.208C372.198 283.037 369.316 294.587 365.839 300.886C364.58 303.16 360.365 310.29 358.332 308.669C348.495 300.818 333.262 271.229 332.298 270.978C333.107 270.625 339.516 267.675 340.415 267.378C341.202 267.114 348.3 274.625 352.599 279.281C354.517 281.357 355.878 282.866 355.878 282.866C357.117 280.078 361.642 262.479 363.046 256.388C366.217 242.656 365.73 242.086 365.73 242.086C375.338 239.176 389.938 233.262 389.938 233.262L409.194 232.475C409.194 232.475 426.86 236.366 433.827 239.508C434.487 239.818 434.49 255.269 436.307 259.337L430.536 271.508C430.536 271.508 427.201 295.616 426.507 306.336C426.166 311.244 433.359 352.477 433.359 352.477Z" fill="#fa9928"/>
<path d="M437.081 279.396C436.576 281.02 434.292 282.392 432.811 282.99C431.829 283.389 430.753 283.496 429.711 283.3L428.958 283.161L415.762 280.713C415.762 280.713 412.876 247.471 433.79 239.505C434.357 239.684 441.699 264.512 437.081 279.396Z" fill="#fa9928"/>
<path d="M432.811 282.99C431.829 283.389 430.753 283.496 429.711 283.3L428.958 283.161L430.26 266.172L432.811 282.99Z" fill="#9c5e17"/>
<path d="M355.856 282.863L354.244 289.679C354.244 289.679 352.493 282.826 352.577 279.266C354.495 281.354 355.856 282.863 355.856 282.863Z" fill="#9c5e17"/>
<path d="M326.735 235.173L325.058 232.295L338.246 227.75L339.919 230.609L326.735 235.173Z" fill="#8B8F8D"/>
<defs>
<linearGradient id="paint0_linear" x1="103.21" y1="383.488" x2="63.7281" y2="383.488" gradientUnits="userSpaceOnUse">
<stop stop-color="#3076A1"/>
<stop offset="1" stop-color="#48C9B6"/>
</linearGradient>
<linearGradient id="paint1_linear" x1="46.9084" y1="552.33" x2="70.4465" y2="450.831" gradientUnits="userSpaceOnUse">
<stop stop-color="#C9C4C1"/>
<stop offset="1" stop-color="#FFF6DE"/>
</linearGradient>
<linearGradient id="paint2_linear" x1="42434.6" y1="93139.5" x2="53249.2" y2="93139.5" gradientUnits="userSpaceOnUse">
<stop stop-color="#C9C4C1"/>
<stop offset="1" stop-color="#FFF6DE"/>
</linearGradient>
</defs>
</svg>
